<svg id="SvgjsSvg1366" width="1251.8839874267578" height="919.2678680419922" xmlns="http://www.w3.org/2000/svg" version="1.1" xmlns:xlink="http://www.w3.org/1999/xlink" xmlns:svgjs="http://svgjs.com/svgjs"><defs id="SvgjsDefs1367"><marker id="SvgjsMarker1406" markerWidth="16" markerHeight="12" refX="16" refY="6" viewBox="0 0 16 12" orient="auto" markerUnits="userSpaceOnUse" stroke-dasharray="0,0"><path id="SvgjsPath1407" d="M0,2 L14,6 L0,11 L0,2" fill="#323232" stroke="#323232" stroke-width="2"></path></marker><marker id="SvgjsMarker1414" markerWidth="16" markerHeight="12" refX="16" refY="6" viewBox="0 0 16 12" orient="auto" markerUnits="userSpaceOnUse" stroke-dasharray="0,0"><path id="SvgjsPath1415" d="M0,2 L14,6 L0,11 L0,2" fill="#323232" stroke="#323232" stroke-width="2"></path></marker><marker id="SvgjsMarker1436" markerWidth="16" markerHeight="12" refX="16" refY="6" viewBox="0 0 16 12" orient="auto" markerUnits="userSpaceOnUse" stroke-dasharray="0,0"><path id="SvgjsPath1437" d="M0,2 L14,6 L0,11 L0,2" fill="#323232" stroke="#323232" stroke-width="2"></path></marker><marker id="SvgjsMarker1460" markerWidth="16" markerHeight="12" refX="16" refY="6" viewBox="0 0 16 12" orient="auto" markerUnits="userSpaceOnUse" stroke-dasharray="0,0"><path id="SvgjsPath1461" d="M0,2 L14,6 L0,11 L0,2" fill="#323232" stroke="#323232" stroke-width="2"></path></marker><marker id="SvgjsMarker1464" markerWidth="16" markerHeight="12" refX="16" refY="6" viewBox="0 0 16 12" orient="auto" markerUnits="userSpaceOnUse" stroke-dasharray="0,0"><path id="SvgjsPath1465" d="M0,2 L14,6 L0,11 L0,2" fill="#323232" stroke="#323232" stroke-width="2"></path></marker><marker id="SvgjsMarker1478" markerWidth="16" markerHeight="12" refX="16" refY="6" viewBox="0 0 16 12" orient="auto" markerUnits="userSpaceOnUse" stroke-dasharray="0,0"><path id="SvgjsPath1479" d="M0,2 L14,6 L0,11 L0,2" fill="#323232" stroke="#323232" stroke-width="2"></path></marker><marker id="SvgjsMarker1514" markerWidth="16" markerHeight="12" refX="16" refY="6" viewBox="0 0 16 12" orient="auto" markerUnits="userSpaceOnUse" stroke-dasharray="0,0"><path id="SvgjsPath1515" d="M0,2 L14,6 L0,11 L0,2" fill="#323232" stroke="#323232" stroke-width="2"></path></marker><marker id="SvgjsMarker1540" markerWidth="16" markerHeight="12" refX="16" refY="6" viewBox="0 0 16 12" orient="auto" markerUnits="userSpaceOnUse" stroke-dasharray="0,0"><path id="SvgjsPath1541" d="M0,2 L14,6 L0,11 L0,2" fill="#323232" stroke="#323232" stroke-width="2"></path></marker><marker id="SvgjsMarker1598" markerWidth="16" markerHeight="12" refX="16" refY="6" viewBox="0 0 16 12" orient="auto" markerUnits="userSpaceOnUse" stroke-dasharray="0,0"><path id="SvgjsPath1599" d="M0,2 L14,6 L0,11 L0,2" fill="#323232" stroke="#323232" stroke-width="2"></path></marker><marker id="SvgjsMarker1602" markerWidth="16" markerHeight="12" refX="16" refY="6" viewBox="0 0 16 12" orient="auto" markerUnits="userSpaceOnUse" stroke-dasharray="0,0"><path id="SvgjsPath1603" d="M0,2 L14,6 L0,11 L0,2" fill="#323232" stroke="#323232" stroke-width="2"></path></marker><marker id="SvgjsMarker1606" markerWidth="16" markerHeight="12" refX="16" refY="6" viewBox="0 0 16 12" orient="auto" markerUnits="userSpaceOnUse" stroke-dasharray="0,0"><path id="SvgjsPath1607" d="M0,2 L14,6 L0,11 L0,2" fill="#323232" stroke="#323232" stroke-width="2"></path></marker><marker id="SvgjsMarker1610" markerWidth="16" markerHeight="12" refX="16" refY="6" viewBox="0 0 16 12" orient="auto" markerUnits="userSpaceOnUse" stroke-dasharray="0,0"><path id="SvgjsPath1611" d="M0,2 L14,6 L0,11 L0,2" fill="#323232" stroke="#323232" stroke-width="2"></path></marker><marker id="SvgjsMarker1636" markerWidth="16" markerHeight="12" refX="16" refY="6" viewBox="0 0 16 12" orient="auto" markerUnits="userSpaceOnUse" stroke-dasharray="0,0"><path id="SvgjsPath1637" d="M0,2 L14,6 L0,11 L0,2" fill="#323232" stroke="#323232" stroke-width="2"></path></marker><marker id="SvgjsMarker1640" markerWidth="16" markerHeight="12" refX="0" refY="6" viewBox="0 0 16 12" orient="auto" markerUnits="userSpaceOnUse" stroke-dasharray="0,0"><path id="SvgjsPath1641" d="M15,1.5 L2,6 L15,10.5" fill="#323232" stroke="#323232" stroke-width="2"></path></marker><marker id="SvgjsMarker1644" markerWidth="16" markerHeight="12" refX="16" refY="6" viewBox="0 0 16 12" orient="auto" markerUnits="userSpaceOnUse" stroke-dasharray="0,0"><path id="SvgjsPath1645" d="M0,2 L14,6 L0,11 L0,2" fill="#323232" stroke="#323232" stroke-width="2"></path></marker><marker id="SvgjsMarker1654" markerWidth="16" markerHeight="12" refX="16" refY="6" viewBox="0 0 16 12" orient="auto" markerUnits="userSpaceOnUse" stroke-dasharray="0,0"><path id="SvgjsPath1655" d="M0,2 L14,6 L0,11 L0,2" fill="#323232" stroke="#323232" stroke-width="2"></path></marker><marker id="SvgjsMarker1658" markerWidth="16" markerHeight="12" refX="16" refY="6" viewBox="0 0 16 12" orient="auto" markerUnits="userSpaceOnUse" stroke-dasharray="0,0"><path id="SvgjsPath1659" d="M0,2 L14,6 L0,11 L0,2" fill="#323232" stroke="#323232" stroke-width="2"></path></marker><marker id="SvgjsMarker1686" markerWidth="16" markerHeight="12" refX="16" refY="6" viewBox="0 0 16 12" orient="auto" markerUnits="userSpaceOnUse" stroke-dasharray="0,0"><path id="SvgjsPath1687" d="M0,2 L14,6 L0,11 L0,2" fill="#323232" stroke="#323232" stroke-width="2"></path></marker><marker id="SvgjsMarker1690" markerWidth="16" markerHeight="12" refX="16" refY="6" viewBox="0 0 16 12" orient="auto" markerUnits="userSpaceOnUse" stroke-dasharray="0,0"><path id="SvgjsPath1691" d="M0,2 L14,6 L0,11 L0,2" fill="#323232" stroke="#323232" stroke-width="2"></path></marker><marker id="SvgjsMarker1698" markerWidth="16" markerHeight="12" refX="16" refY="6" viewBox="0 0 16 12" orient="auto" markerUnits="userSpaceOnUse" stroke-dasharray="0,0"><path id="SvgjsPath1699" d="M0,2 L14,6 L0,11 L0,2" fill="#323232" stroke="#323232" stroke-width="2"></path></marker><marker id="SvgjsMarker1716" markerWidth="16" markerHeight="12" refX="16" refY="6" viewBox="0 0 16 12" orient="auto" markerUnits="userSpaceOnUse" stroke-dasharray="0,0"><path id="SvgjsPath1717" d="M0,2 L14,6 L0,11 L0,2" fill="#323232" stroke="#323232" stroke-width="2"></path></marker><marker id="SvgjsMarker1720" markerWidth="16" markerHeight="12" refX="16" refY="6" viewBox="0 0 16 12" orient="auto" markerUnits="userSpaceOnUse" stroke-dasharray="0,0"><path id="SvgjsPath1721" d="M0,2 L14,6 L0,11 L0,2" fill="#323232" stroke="#323232" stroke-width="2"></path></marker></defs><g id="SvgjsG1368" transform="translate(25.00586700439453,88.27232091956958)"><path id="SvgjsPath1369" d="M 0 4Q 0 0 4 0L 754.9516358761141 0Q 758.9516358761141 0 758.9516358761141 4L 758.9516358761141 801.7366111940779Q 758.9516358761141 805.7366111940779 754.9516358761141 805.7366111940779L 4 805.7366111940779Q 0 805.7366111940779 0 801.7366111940779Z" stroke-dasharray="10,6" stroke="rgba(50,50,50,1)" stroke-width="2" fill-opacity="1" fill="#ffffff"></path><g id="SvgjsG1370"><text id="SvgjsText1371" font-family="微软雅黑" text-anchor="middle" font-size="16px" width="739px" fill="#323232" font-weight="700" align="top" lineHeight="125%" anchor="middle" family="微软雅黑" size="16px" weight="700" font-style="" opacity="1" y="-2" transform="rotate(0)"><tspan id="SvgjsTspan1372" dy="20" x="379.5"><tspan id="SvgjsTspan1373" style="text-decoration:;">下载器流程</tspan></tspan></text></g></g><g id="SvgjsG1374" transform="translate(805.8845631944525,25.008926391601562)"><path id="SvgjsPath1375" d="M 0 4Q 0 0 4 0L 417.5975687635554 0Q 421.5975687635554 0 421.5975687635554 4L 421.5975687635554 857.9910875565827Q 421.5975687635554 861.9910875565827 417.5975687635554 861.9910875565827L 4 861.9910875565827Q 0 861.9910875565827 0 857.9910875565827Z" stroke-dasharray="10,6" stroke="rgba(50,50,50,1)" stroke-width="2" fill-opacity="1" fill="#ffffff"></path><g id="SvgjsG1376"><text id="SvgjsText1377" font-family="微软雅黑" text-anchor="middle" font-size="16px" width="402px" fill="#323232" font-weight="700" align="top" lineHeight="125%" anchor="middle" family="微软雅黑" size="16px" weight="700" font-style="" opacity="1" y="-2" transform="rotate(0)"><tspan id="SvgjsTspan1378" dy="20" x="211"><tspan id="SvgjsTspan1379" style="text-decoration:;">系统总流程</tspan></tspan></text></g></g><g id="SvgjsG1380" transform="translate(838.7751536653682,60.02973407672671)"><path id="SvgjsPath1381" d="M 0 27.07659720585482L 162.45958323512892 0L 162.45958323512892 77.9495396862463L 0 77.9495396862463L 0 27.07659720585482Z" stroke="rgba(50,50,50,1)" stroke-width="2" fill-opacity="1" fill="#ffffff"></path><g id="SvgjsG1382"><text id="SvgjsText1383" font-family="微软雅黑" text-anchor="middle" font-size="13px" width="163px" fill="#323232" font-weight="700" align="middle" lineHeight="125%" anchor="middle" family="微软雅黑" size="13px" weight="700" font-style="" opacity="1" y="33.24724682743547" transform="rotate(0)"><tspan id="SvgjsTspan1384" dy="16" x="81.5"><tspan id="SvgjsTspan1385" style="text-decoration:;">web ui</tspan></tspan></text></g></g><g id="SvgjsG1386" transform="translate(832.7950463070198,185.426819658949)"><path id="SvgjsPath1387" d="M 0 0L 174.4197979518255 0L 174.4197979518255 120.87827168736744L 0 120.87827168736744Z" stroke="rgba(50,50,50,1)" stroke-width="2" fill-opacity="1" fill="#ffffff"></path><g id="SvgjsG1388"><text id="SvgjsText1389" font-family="微软雅黑" text-anchor="middle" font-size="13px" width="155px" fill="#323232" font-weight="700" align="top" lineHeight="125%" anchor="middle" family="微软雅黑" size="13px" weight="700" font-style="" opacity="1" y="-1.625" transform="rotate(0)"><tspan id="SvgjsTspan1390" dy="16" x="87.5"><tspan id="SvgjsTspan1391" style="text-decoration:;">CMS</tspan></tspan></text></g></g><g id="SvgjsG1392" transform="translate(850.7353683820647,210.28029608065074)"><path id="SvgjsPath1393" d="M 0 0L 138.5391538017357 0L 138.5391538017357 29.372290316556576L 0 29.372290316556576Z" stroke="rgba(50,50,50,1)" stroke-width="2" fill-opacity="1" fill="#ffffff"></path><g id="SvgjsG1394"><text id="SvgjsText1395" font-family="微软雅黑" text-anchor="middle" font-size="13px" width="119px" fill="#323232" font-weight="400" align="middle" lineHeight="125%" anchor="middle" family="微软雅黑" size="13px" weight="400" font-style="" opacity="1" y="5.061145158278288" transform="rotate(0)"><tspan id="SvgjsTspan1396" dy="16" x="69.5"><tspan id="SvgjsTspan1397" style="text-decoration:;">handler</tspan></tspan></text></g></g><g id="SvgjsG1398" transform="translate(850.7353683820647,262.2466558714816)"><path id="SvgjsPath1399" d="M 0 0L 138.5391538017357 0L 138.5391538017357 29.372290316556576L 0 29.372290316556576Z" stroke="rgba(50,50,50,1)" stroke-width="2" fill-opacity="1" fill="#ffffff"></path><g id="SvgjsG1400"><text id="SvgjsText1401" font-family="微软雅黑" text-anchor="middle" font-size="13px" width="119px" fill="#323232" font-weight="400" align="middle" lineHeight="125%" anchor="middle" family="微软雅黑" size="13px" weight="400" font-style="" opacity="1" y="5.061145158278288" transform="rotate(0)"><tspan id="SvgjsTspan1402" dy="16" x="69.5"><tspan id="SvgjsTspan1403" style="text-decoration:;">scheduler-api</tspan></tspan></text></g></g><g id="SvgjsG1404"><path id="SvgjsPath1405" d="M920.0049452829327 137.979273762973L920.0049452829327 161.70304671096102L920.0049452829326 161.70304671096102L920.0049452829326 185.426819658949" stroke="#323232" stroke-width="2" fill="none" marker-end="url(#SvgjsMarker1406)"></path><rect id="SvgjsRect1408" width="26" height="16" x="907.0049452829327" y="146.5859148265646" fill="#ffffff"></rect><text id="SvgjsText1409" font-family="微软雅黑" text-anchor="middle" font-size="13px" width="26px" fill="#323232" font-weight="400" align="top" lineHeight="16px" anchor="middle" family="微软雅黑" size="13px" weight="400" font-style="" opacity="1" y="144.9609148265646" transform="rotate(0)"><tspan id="SvgjsTspan1410" dy="16" x="920.0049452829327"><tspan id="SvgjsTspan1411" style="text-decoration:;">http</tspan></tspan></text></g><g id="SvgjsG1412"><path id="SvgjsPath1413" d="M920.0049452829326 306.30509134631643L920.0049452829326 339.63134382087105L920.0049452829326 339.63134382087105L920.0049452829326 372.9575962954256" stroke="#323232" stroke-width="2" fill="none" marker-end="url(#SvgjsMarker1414)"></path><rect id="SvgjsRect1416" width="31" height="16" x="904.5049452829326" y="324.9660933259601" fill="#ffffff"></rect><text id="SvgjsText1417" font-family="微软雅黑" text-anchor="middle" font-size="13px" width="31px" fill="#323232" font-weight="400" align="top" lineHeight="16px" anchor="middle" family="微软雅黑" size="13px" weight="400" font-style="" opacity="1" y="323.3410933259601" transform="rotate(0)"><tspan id="SvgjsTspan1418" dy="16" x="920.0049452829326"><tspan id="SvgjsTspan1419" style="text-decoration:;">thrift</tspan></tspan></text></g><g id="SvgjsG1420" transform="translate(832.7950463070198,372.9575962954256)"><path id="SvgjsPath1421" d="M 0 0L 174.4197979518255 0L 174.4197979518255 120.87827168736744L 0 120.87827168736744Z" stroke="rgba(50,50,50,1)" stroke-width="2" fill-opacity="1" fill="#ffffff"></path><g id="SvgjsG1422"><text id="SvgjsText1423" font-family="微软雅黑" text-anchor="middle" font-size="13px" width="155px" fill="#323232" font-weight="700" align="top" lineHeight="125%" anchor="middle" family="微软雅黑" size="13px" weight="700" font-style="" opacity="1" y="-1.625" transform="rotate(0)"><tspan id="SvgjsTspan1424" dy="16" x="87.5"><tspan id="SvgjsTspan1425" style="text-decoration:;">Scheduler</tspan></tspan></text></g></g><g id="SvgjsG1426" transform="translate(1091.9330318354464,191.357762895946)"><path id="SvgjsPath1427" d="M 0 15.262293929872284C 0 -4.360655408534938 105.64856333082002 -4.360655408534938 105.64856333082002 15.262293929872284L 105.64856333082002 93.75409128350115C 105.64856333082002 113.37704062190838 0 113.37704062190838 0 93.75409128350115L 0 15.262293929872284Z" stroke="rgba(50,50,50,1)" stroke-width="2" fill-opacity="1" fill="#ffffff"></path><path id="SvgjsPath1428" d="M 105.64856333082002 15.262293929872284C 105.64856333082002 32.70491556401203 0 32.70491556401203 0 15.262293929872284L 0 21.80327704267469C 0 39.245898676814434 105.64856333082002 39.245898676814434 105.64856333082002 21.80327704267469L 105.64856333082002 28.344260155477095C 105.64856333082002 45.78688178961684 0 45.78688178961684 0 28.344260155477095C 0 45.78688178961684 105.64856333082002 45.78688178961684 105.64856333082002 28.344260155477095Z" stroke="rgba(50,50,50,1)" stroke-width="2" fill-opacity="1" fill="#ffffff"></path><path id="SvgjsPath1429" d="M 0 10.901638521337345Q 52.82428166541001 -10.901638521337345 105.64856333082002 10.901638521337345L 105.64856333082002 98.11474669203609Q 52.82428166541001 119.91802373471079 0 98.11474669203609L 0 10.901638521337345Z" stroke="none" fill="none"></path><g id="SvgjsG1430"><text id="SvgjsText1431" font-family="微软雅黑" text-anchor="middle" font-size="13px" width="106px" fill="#323232" font-weight="400" align="middle" lineHeight="125%" anchor="middle" family="微软雅黑" size="13px" weight="400" font-style="" opacity="1" y="63.05259014224896" transform="rotate(0)"><tspan id="SvgjsTspan1432" dy="16" x="53"><tspan id="SvgjsTspan1433" style="text-decoration:;font-weight: bold;">mongodb</tspan></tspan></text></g></g><g id="SvgjsG1434"><path id="SvgjsPath1435" d="M989.2745221838004 224.966441238929L1037.1153810505868 224.966441238929L1037.1153810505868 224.966441238929L1084.9562399173733 224.966441238929" stroke="#323232" stroke-width="2" fill="none" marker-end="url(#SvgjsMarker1436)"></path></g><g id="SvgjsG1438" transform="translate(1091.9330318354464,378.8885395324226)"><path id="SvgjsPath1439" d="M 0 15.262293929872284C 0 -4.360655408534938 105.64856333082002 -4.360655408534938 105.64856333082002 15.262293929872284L 105.64856333082002 93.75409128350115C 105.64856333082002 113.37704062190838 0 113.37704062190838 0 93.75409128350115L 0 15.262293929872284Z" stroke="rgba(50,50,50,1)" stroke-width="2" fill-opacity="1" fill="#ffffff"></path><path id="SvgjsPath1440" d="M 105.64856333082002 15.262293929872284C 105.64856333082002 32.70491556401203 0 32.70491556401203 0 15.262293929872284L 0 21.80327704267469C 0 39.245898676814434 105.64856333082002 39.245898676814434 105.64856333082002 21.80327704267469L 105.64856333082002 28.344260155477095C 105.64856333082002 45.78688178961684 0 45.78688178961684 0 28.344260155477095C 0 45.78688178961684 105.64856333082002 45.78688178961684 105.64856333082002 28.344260155477095Z" stroke="rgba(50,50,50,1)" stroke-width="2" fill-opacity="1" fill="#ffffff"></path><path id="SvgjsPath1441" d="M 0 10.901638521337345Q 52.82428166541001 -10.901638521337345 105.64856333082002 10.901638521337345L 105.64856333082002 98.11474669203609Q 52.82428166541001 119.91802373471079 0 98.11474669203609L 0 10.901638521337345Z" stroke="none" fill="none"></path><g id="SvgjsG1442"><text id="SvgjsText1443" font-family="微软雅黑" text-anchor="middle" font-size="13px" width="106px" fill="#323232" font-weight="400" align="middle" lineHeight="125%" anchor="middle" family="微软雅黑" size="13px" weight="400" font-style="" opacity="1" y="63.05259014224896" transform="rotate(0)"><tspan id="SvgjsTspan1444" dy="16" x="53"><tspan id="SvgjsTspan1445" style="text-decoration:;font-weight: bold;">redis/pika</tspan></tspan></text></g></g><g id="SvgjsG1446" transform="translate(850.7353683820647,400.07047966455474)"><path id="SvgjsPath1447" d="M 0 0L 138.5391538017357 0L 138.5391538017357 29.372290316556576L 0 29.372290316556576Z" stroke="rgba(50,50,50,1)" stroke-width="2" fill-opacity="1" fill="#ffffff"></path><g id="SvgjsG1448"><text id="SvgjsText1449" font-family="微软雅黑" text-anchor="middle" font-size="13px" width="119px" fill="#323232" font-weight="400" align="middle" lineHeight="125%" anchor="middle" family="微软雅黑" size="13px" weight="400" font-style="" opacity="1" y="5.061145158278288" transform="rotate(0)"><tspan id="SvgjsTspan1450" dy="16" x="69.5"><tspan id="SvgjsTspan1451" style="text-decoration:;">redis-api</tspan></tspan></text></g></g><g id="SvgjsG1452" transform="translate(850.7353683820647,448.64772903424443)"><path id="SvgjsPath1453" d="M 0 0L 138.5391538017357 0L 138.5391538017357 29.372290316556576L 0 29.372290316556576Z" stroke="rgba(50,50,50,1)" stroke-width="2" fill-opacity="1" fill="#ffffff"></path><g id="SvgjsG1454"><text id="SvgjsText1455" font-family="微软雅黑" text-anchor="middle" font-size="13px" width="119px" fill="#323232" font-weight="400" align="middle" lineHeight="125%" anchor="middle" family="微软雅黑" size="13px" weight="400" font-style="" opacity="1" y="5.061145158278288" transform="rotate(0)"><tspan id="SvgjsTspan1456" dy="16" x="69.5"><tspan id="SvgjsTspan1457" style="text-decoration:;">download-api</tspan></tspan></text></g></g><g id="SvgjsG1458"><path id="SvgjsPath1459" d="M989.2745221838004 414.75662482283303L1037.1153810505868 414.75662482283303L1037.1153810505868 414.75662482283303L1084.9562399173733 414.75662482283303" stroke="#323232" stroke-width="2" fill="none" marker-end="url(#SvgjsMarker1460)"></path></g><g id="SvgjsG1462"><path id="SvgjsPath1463" d="M920.0049452829326 493.83586798279305L920.0049452829326 526.0324169836339L920.0049452829326 526.0324169836339L920.0049452829326 558.2289659844747" stroke="#323232" stroke-width="2" fill="none" marker-end="url(#SvgjsMarker1464)"></path><rect id="SvgjsRect1466" width="31" height="16" x="904.5049452829326" y="518.0324169836339" fill="#ffffff"></rect><text id="SvgjsText1467" font-family="微软雅黑" text-anchor="middle" font-size="13px" width="31px" fill="#323232" font-weight="400" align="top" lineHeight="16px" anchor="middle" family="微软雅黑" size="13px" weight="400" font-style="" opacity="1" y="516.4074169836339" transform="rotate(0)"><tspan id="SvgjsTspan1468" dy="16" x="920.0049452829326"><tspan id="SvgjsTspan1469" style="text-decoration:;">thrift</tspan></tspan></text></g><g id="SvgjsG1470" transform="translate(832.7950463070198,558.2289659844747)"><path id="SvgjsPath1471" d="M 0 0L 174.4197979518255 0L 174.4197979518255 120.87827168736744L 0 120.87827168736744Z" stroke="rgba(50,50,50,1)" stroke-width="2" fill-opacity="1" fill="#ffffff"></path><g id="SvgjsG1472"><text id="SvgjsText1473" font-family="微软雅黑" text-anchor="middle" font-size="13px" width="155px" fill="#323232" font-weight="700" align="top" lineHeight="125%" anchor="middle" family="微软雅黑" size="13px" weight="700" font-style="" opacity="1" y="-1.625" transform="rotate(0)"><tspan id="SvgjsTspan1474" dy="16" x="87.5"><tspan id="SvgjsTspan1475" style="text-decoration:;">Downloader</tspan></tspan></text></g></g><g id="SvgjsG1476"><path id="SvgjsPath1477" d="M920.0049452829326 679.1072376718422L920.0049452829326 709.6092314621125L920.0049452829326 709.6092314621125L920.0049452829326 740.1112252523827" stroke="#323232" stroke-width="2" fill="none" marker-end="url(#SvgjsMarker1478)"></path><rect id="SvgjsRect1480" width="33" height="16" x="903.5049452829326" y="697.0339323935718" fill="#ffffff"></rect><text id="SvgjsText1481" font-family="微软雅黑" text-anchor="middle" font-size="13px" width="33px" fill="#323232" font-weight="400" align="top" lineHeight="16px" anchor="middle" family="微软雅黑" size="13px" weight="400" font-style="" opacity="1" y="695.4089323935718" transform="rotate(0)"><tspan id="SvgjsTspan1482" dy="16" x="920.0049452829326"><tspan id="SvgjsTspan1483" style="text-decoration:;">kafka</tspan></tspan></text></g><g id="SvgjsG1484" transform="translate(832.7950463070198,740.1112252523827)"><path id="SvgjsPath1485" d="M 0 0L 174.4197979518255 0L 174.4197979518255 120.87827168736744L 0 120.87827168736744Z" stroke="rgba(50,50,50,1)" stroke-width="2" fill-opacity="1" fill="#ffffff"></path><g id="SvgjsG1486"><text id="SvgjsText1487" font-family="微软雅黑" text-anchor="middle" font-size="13px" width="155px" fill="#323232" font-weight="700" align="top" lineHeight="125%" anchor="middle" family="微软雅黑" size="13px" weight="700" font-style="" opacity="1" y="-1.625" transform="rotate(0)"><tspan id="SvgjsTspan1488" dy="16" x="87.5"><tspan id="SvgjsTspan1489" style="text-decoration:;">Extractor</tspan></tspan></text></g></g><g id="SvgjsG1490" transform="translate(847.7453147028906,768.3538120952256)"><path id="SvgjsPath1491" d="M 0 0L 138.5391538017357 0L 138.5391538017357 29.372290316556576L 0 29.372290316556576Z" stroke="rgba(50,50,50,1)" stroke-width="2" fill-opacity="1" fill="#ffffff"></path><g id="SvgjsG1492"><text id="SvgjsText1493" font-family="微软雅黑" text-anchor="middle" font-size="13px" width="119px" fill="#323232" font-weight="400" align="middle" lineHeight="125%" anchor="middle" family="微软雅黑" size="13px" weight="400" font-style="" opacity="1" y="5.061145158278288" transform="rotate(0)"><tspan id="SvgjsTspan1494" dy="16" x="69.5"><tspan id="SvgjsTspan1495" style="text-decoration:;">jsonpath</tspan></tspan></text></g></g><g id="SvgjsG1496" transform="translate(850.7353683820647,812.4122475700606)"><path id="SvgjsPath1497" d="M 0 0L 138.5391538017357 0L 138.5391538017357 29.372290316556576L 0 29.372290316556576Z" stroke="rgba(50,50,50,1)" stroke-width="2" fill-opacity="1" fill="#ffffff"></path><g id="SvgjsG1498"><text id="SvgjsText1499" font-family="微软雅黑" text-anchor="middle" font-size="13px" width="119px" fill="#323232" font-weight="400" align="middle" lineHeight="125%" anchor="middle" family="微软雅黑" size="13px" weight="400" font-style="" opacity="1" y="5.061145158278288" transform="rotate(0)"><tspan id="SvgjsTspan1500" dy="16" x="69.5"><tspan id="SvgjsTspan1501" style="text-decoration:;">xpath</tspan></tspan></text></g></g><g id="SvgjsG1502" transform="translate(1091.9330318354464,751.9731117263768)"><path id="SvgjsPath1503" d="M 0 15.262293929872284C 0 -4.360655408534938 105.64856333082002 -4.360655408534938 105.64856333082002 15.262293929872284L 105.64856333082002 93.75409128350115C 105.64856333082002 113.37704062190838 0 113.37704062190838 0 93.75409128350115L 0 15.262293929872284Z" stroke="rgba(50,50,50,1)" stroke-width="2" fill-opacity="1" fill="#ffffff"></path><path id="SvgjsPath1504" d="M 105.64856333082002 15.262293929872284C 105.64856333082002 32.70491556401203 0 32.70491556401203 0 15.262293929872284L 0 21.80327704267469C 0 39.245898676814434 105.64856333082002 39.245898676814434 105.64856333082002 21.80327704267469L 105.64856333082002 28.344260155477095C 105.64856333082002 45.78688178961684 0 45.78688178961684 0 28.344260155477095C 0 45.78688178961684 105.64856333082002 45.78688178961684 105.64856333082002 28.344260155477095Z" stroke="rgba(50,50,50,1)" stroke-width="2" fill-opacity="1" fill="#ffffff"></path><path id="SvgjsPath1505" d="M 0 10.901638521337345Q 52.82428166541001 -10.901638521337345 105.64856333082002 10.901638521337345L 105.64856333082002 98.11474669203609Q 52.82428166541001 119.91802373471079 0 98.11474669203609L 0 10.901638521337345Z" stroke="none" fill="none"></path><g id="SvgjsG1506"><text id="SvgjsText1507" font-family="微软雅黑" text-anchor="middle" font-size="13px" width="106px" fill="#323232" font-weight="700" align="middle" lineHeight="125%" anchor="middle" family="微软雅黑" size="13px" weight="700" font-style="" opacity="1" y="55.05259014224896" transform="rotate(0)"><tspan id="SvgjsTspan1508" dy="16" x="53"><tspan id="SvgjsTspan1509" style="text-decoration:;font-weight: bold;">mongo/mysql/</tspan></tspan><tspan id="SvgjsTspan1510" dy="16" x="53"><tspan id="SvgjsTspan1511" style="text-decoration:;">kafka/httpsq</tspan></tspan></text></g></g><g id="SvgjsG1512"><path id="SvgjsPath1513" d="M1007.2148442588452 800.5503610960665L1045.0888575283846 800.5503610960665L1045.0888575283846 800.5503610960665L1082.9628707979239 800.5503610960665" stroke="#323232" stroke-width="2" fill="none" marker-end="url(#SvgjsMarker1514)"></path><rect id="SvgjsRect1516" width="47" height="16" x="1019.6951568649076" y="792.5503610960665" fill="#ffffff"></rect><text id="SvgjsText1517" font-family="微软雅黑" text-anchor="middle" font-size="13px" width="47px" fill="#323232" font-weight="400" align="top" lineHeight="16px" anchor="middle" family="微软雅黑" size="13px" weight="400" font-style="" opacity="1" y="790.9253610960665" transform="rotate(0)"><tspan id="SvgjsTspan1518" dy="16" x="1043.1951568649076"><tspan id="SvgjsTspan1519" style="text-decoration:;">storage</tspan></tspan></text></g><g id="SvgjsG1520" transform="translate(850.7353683820647,587.6012563010314)"><path id="SvgjsPath1521" d="M 0 0L 138.5391538017357 0L 138.5391538017357 29.372290316556576L 0 29.372290316556576Z" stroke="rgba(50,50,50,1)" stroke-width="2" fill-opacity="1" fill="#ffffff"></path><g id="SvgjsG1522"><text id="SvgjsText1523" font-family="微软雅黑" text-anchor="middle" font-size="13px" width="119px" fill="#323232" font-weight="400" align="middle" lineHeight="125%" anchor="middle" family="微软雅黑" size="13px" weight="400" font-style="" opacity="1" y="5.061145158278288" transform="rotate(0)"><tspan id="SvgjsTspan1524" dy="16" x="69.5"><tspan id="SvgjsTspan1525" style="text-decoration:;">middleware</tspan></tspan></text></g></g><g id="SvgjsG1526" transform="translate(850.7353683820647,636.178505670721)"><path id="SvgjsPath1527" d="M 0 0L 138.5391538017357 0L 138.5391538017357 29.372290316556576L 0 29.372290316556576Z" stroke="rgba(50,50,50,1)" stroke-width="2" fill-opacity="1" fill="#ffffff"></path><g id="SvgjsG1528"><text id="SvgjsText1529" font-family="微软雅黑" text-anchor="middle" font-size="13px" width="119px" fill="#323232" font-weight="400" align="middle" lineHeight="125%" anchor="middle" family="微软雅黑" size="13px" weight="400" font-style="" opacity="1" y="5.061145158278288" transform="rotate(0)"><tspan id="SvgjsTspan1530" dy="16" x="69.5"><tspan id="SvgjsTspan1531" style="text-decoration:;">proxy-api</tspan></tspan></text></g></g><g id="SvgjsG1532" transform="translate(1085.952924477098,558.2289659844747)"><path id="SvgjsPath1533" d="M 0 0L 117.60877804751664 0L 117.60877804751664 143.47234116164174L 0 143.47234116164174Z" stroke="rgba(50,50,50,1)" stroke-width="2" fill-opacity="1" fill="#ffffff"></path><g id="SvgjsG1534"><text id="SvgjsText1535" font-family="微软雅黑" text-anchor="middle" font-size="13px" width="98px" fill="#323232" font-weight="700" align="top" lineHeight="125%" anchor="middle" family="微软雅黑" size="13px" weight="700" font-style="" opacity="1" y="-1.625" transform="rotate(0)"><tspan id="SvgjsTspan1536" dy="16" x="59"><tspan id="SvgjsTspan1537" style="text-decoration:;">Proxy</tspan></tspan></text></g></g><g id="SvgjsG1538"><path id="SvgjsPath1539" d="M1082.9628707979239 650.8646508289994L1036.118696490862 650.8646508289994L1036.118696490862 650.8646508289993L989.2745221838004 650.8646508289993" stroke="#323232" stroke-width="2" fill="none" marker-end="url(#SvgjsMarker1540)"></path></g><g id="SvgjsG1542" transform="translate(1095.4214277944827,590.4255149853157)"><path id="SvgjsPath1543" d="M 0 0L 98.671771412747 0L 98.671771412747 23.723772947988L 0 23.723772947988Z" stroke="rgba(50,50,50,1)" stroke-width="2" fill-opacity="1" fill="#ffffff"></path><g id="SvgjsG1544"><text id="SvgjsText1545" font-family="微软雅黑" text-anchor="middle" font-size="13px" width="79px" fill="#323232" font-weight="400" align="middle" lineHeight="125%" anchor="middle" family="微软雅黑" size="13px" weight="400" font-style="" opacity="1" y="2.2368864739939998" transform="rotate(0)"><tspan id="SvgjsTspan1546" dy="16" x="49.5"><tspan id="SvgjsTspan1547" style="text-decoration:;">stable</tspan></tspan></text></g></g><g id="SvgjsG1548" transform="translate(1095.4214277944827,625.4463226704407)"><path id="SvgjsPath1549" d="M 0 0L 98.671771412747 0L 98.671771412747 23.723772947988L 0 23.723772947988Z" stroke="rgba(50,50,50,1)" stroke-width="2" fill-opacity="1" fill="#ffffff"></path><g id="SvgjsG1550"><text id="SvgjsText1551" font-family="微软雅黑" text-anchor="middle" font-size="13px" width="79px" fill="#323232" font-weight="400" align="middle" lineHeight="125%" anchor="middle" family="微软雅黑" size="13px" weight="400" font-style="" opacity="1" y="2.2368864739939998" transform="rotate(0)"><tspan id="SvgjsTspan1552" dy="16" x="49.5"><tspan id="SvgjsTspan1553" style="text-decoration:;">dynamic</tspan></tspan></text></g></g><g id="SvgjsG1554" transform="translate(1095.4214277944827,665.5507959872776)"><path id="SvgjsPath1555" d="M 0 0L 98.671771412747 0L 98.671771412747 23.723772947988L 0 23.723772947988Z" stroke="rgba(50,50,50,1)" stroke-width="2" fill-opacity="1" fill="#ffffff"></path><g id="SvgjsG1556"><text id="SvgjsText1557" font-family="微软雅黑" text-anchor="middle" font-size="13px" width="79px" fill="#323232" font-weight="400" align="middle" lineHeight="125%" anchor="middle" family="微软雅黑" size="13px" weight="400" font-style="" opacity="1" y="2.2368864739939998" transform="rotate(0)"><tspan id="SvgjsTspan1558" dy="16" x="49.5"><tspan id="SvgjsTspan1559" style="text-decoration:;">oversea</tspan></tspan></text></g></g><g id="SvgjsG1560" transform="translate(73.50596808625042,143.97057276853556)"><path id="SvgjsPath1561" d="M 0 4Q 0 0 4 0L 358.4840276611319 0Q 362.4840276611319 0 362.4840276611319 4L 362.4840276611319 53.27209552240545Q 362.4840276611319 57.27209552240545 358.4840276611319 57.27209552240545L 4 57.27209552240545Q 0 57.27209552240545 0 53.27209552240545Z" stroke-dasharray="10,6" stroke="rgba(50,50,50,1)" stroke-width="2" fill-opacity="1" fill="#ffffff"></path><g id="SvgjsG1562"><text id="SvgjsText1563" font-family="微软雅黑" text-anchor="middle" font-size="12px" width="343px" fill="#323232" font-weight="400" align="middle" lineHeight="125%" anchor="middle" family="微软雅黑" size="12px" weight="400" font-style="" opacity="1" y="19.636047761202725" transform="rotate(0)"><tspan id="SvgjsTspan1564" dy="15" x="181.5"><tspan id="SvgjsTspan1565" style="text-decoration:;">外部依赖初始化：Scheduler、Consumer(Kafka)、logger</tspan></tspan></text></g></g><g id="SvgjsG1566" transform="translate(499.64849669566706,160.54600612422863)"><path id="SvgjsPath1567" d="M 0 4Q 0 0 4 0L 232.9224554929545 0Q 236.9224554929545 0 236.9224554929545 4L 236.9224554929545 49.3155617165679Q 236.9224554929545 53.3155617165679 232.9224554929545 53.3155617165679L 4 53.3155617165679Q 0 53.3155617165679 0 49.3155617165679Z" stroke-dasharray="10,6" stroke="rgba(50,50,50,1)" stroke-width="2" fill-opacity="1" fill="#ffffff"></path><g id="SvgjsG1568"><text id="SvgjsText1569" font-family="微软雅黑" text-anchor="middle" font-size="12px" width="217px" fill="#323232" font-weight="400" align="middle" lineHeight="125%" anchor="middle" family="微软雅黑" size="12px" weight="400" font-style="" opacity="1" y="17.65778085828395" transform="rotate(0)"><tspan id="SvgjsTspan1570" dy="15" x="118.5"><tspan id="SvgjsTspan1571" style="text-decoration:;">handleOnRequest</tspan></tspan></text></g></g><g id="SvgjsG1572" transform="translate(73.50596808625014,235.99674533222014)"><path id="SvgjsPath1573" d="M 0 4Q 0 0 4 0L 358.48402766113225 0Q 362.48402766113225 0 362.48402766113225 4L 362.48402766113225 50.20415441184402Q 362.48402766113225 54.20415441184402 358.48402766113225 54.20415441184402L 4 54.20415441184402Q 0 54.20415441184402 0 50.20415441184402Z" stroke-dasharray="10,6" stroke="rgba(50,50,50,1)" stroke-width="2" fill-opacity="1" fill="#ffffff"></path><g id="SvgjsG1574"><text id="SvgjsText1575" font-family="微软雅黑" text-anchor="middle" font-size="12px" width="343px" fill="#323232" font-weight="400" align="middle" lineHeight="125%" anchor="middle" family="微软雅黑" size="12px" weight="400" font-style="" opacity="1" y="18.10207720592201" transform="rotate(0)"><tspan id="SvgjsTspan1576" dy="15" x="181.5"><tspan id="SvgjsTspan1577" style="text-decoration:;">创建collector：设置异步、超时、域名、后端、并发</tspan></tspan></text></g></g><g id="SvgjsG1578" transform="translate(73.50596808625014,422.21016696983577)"><path id="SvgjsPath1579" d="M 0 4Q 0 0 4 0L 358.48402766113225 0Q 362.48402766113225 0 362.48402766113225 4L 362.48402766113225 50.20415441184402Q 362.48402766113225 54.20415441184402 358.48402766113225 54.20415441184402L 4 54.20415441184402Q 0 54.20415441184402 0 50.20415441184402Z" stroke-dasharray="10,6" stroke="rgba(50,50,50,1)" stroke-width="2" fill-opacity="1" fill="#ffffff"></path><g id="SvgjsG1580"><text id="SvgjsText1581" font-family="微软雅黑" text-anchor="middle" font-size="12px" width="343px" fill="#323232" font-weight="400" align="middle" lineHeight="125%" anchor="middle" family="微软雅黑" size="12px" weight="400" font-style="" opacity="1" y="18.10207720592201" transform="rotate(0)"><tspan id="SvgjsTspan1582" dy="15" x="181.5"><tspan id="SvgjsTspan1583" style="text-decoration:;">Visit （Head/Post/PostRaw/PostMultipart/Request）</tspan></tspan></text></g></g><g id="SvgjsG1584" transform="translate(73.50596808625014,514.726734607747)"><path id="SvgjsPath1585" d="M 0 4Q 0 0 4 0L 358.48402766113225 0Q 362.48402766113225 0 362.48402766113225 4L 362.48402766113225 50.20415441184402Q 362.48402766113225 54.20415441184402 358.48402766113225 54.20415441184402L 4 54.20415441184402Q 0 54.20415441184402 0 50.20415441184402Z" stroke-dasharray="10,6" stroke="rgba(50,50,50,1)" stroke-width="2" fill-opacity="1" fill="#ffffff"></path><g id="SvgjsG1586"><text id="SvgjsText1587" font-family="微软雅黑" text-anchor="middle" font-size="12px" width="343px" fill="#323232" font-weight="400" align="middle" lineHeight="125%" anchor="middle" family="微软雅黑" size="12px" weight="400" font-style="" opacity="1" y="18.10207720592201" transform="rotate(0)"><tspan id="SvgjsTspan1588" dy="15" x="181.5"><tspan id="SvgjsTspan1589" style="text-decoration:;">scrape</tspan></tspan></text></g></g><g id="SvgjsG1590" transform="translate(73.50596808625014,718.2753834944498)"><path id="SvgjsPath1591" d="M 0 4Q 0 0 4 0L 358.48402766113225 0Q 362.48402766113225 0 362.48402766113225 4L 362.48402766113225 50.20415441184402Q 362.48402766113225 54.20415441184402 358.48402766113225 54.20415441184402L 4 54.20415441184402Q 0 54.20415441184402 0 50.20415441184402Z" stroke-dasharray="10,6" stroke="rgba(50,50,50,1)" stroke-width="2" fill-opacity="1" fill="#ffffff"></path><g id="SvgjsG1592"><text id="SvgjsText1593" font-family="微软雅黑" text-anchor="middle" font-size="12px" width="343px" fill="#323232" font-weight="400" align="middle" lineHeight="125%" anchor="middle" family="微软雅黑" size="12px" weight="400" font-style="" opacity="1" y="18.10207720592201" transform="rotate(0)"><tspan id="SvgjsTspan1594" dy="15" x="181.5"><tspan id="SvgjsTspan1595" style="text-decoration:;">fetch</tspan></tspan></text></g></g><g id="SvgjsG1596"><path id="SvgjsPath1597" d="M232.33655194512966 201.98458951346137L232.33655194512966 216.21079535497552L232.33655194512966 216.21079535497552L232.33655194512966 230.43700119648963" stroke-dasharray="3,3" stroke="#323232" stroke-width="2" fill="none" marker-end="url(#SvgjsMarker1598)"></path></g><g id="SvgjsG1600"><path id="SvgjsPath1601" d="M233.09060799457095 292.13823846923015L233.09060799457095 305.7926018042L233.09060799457095 305.7926018042L233.09060799457095 319.4469651391698" stroke-dasharray="3,3" stroke="#323232" stroke-width="2" fill="none" marker-end="url(#SvgjsMarker1602)"></path></g><g id="SvgjsG1604"><path id="SvgjsPath1605" d="M233.0524279414347 482.3217142328782L233.0524279414347 495.97607756784805L233.0524279414347 495.97607756784805L233.0524279414347 509.6304409028178" stroke-dasharray="3,3" stroke="#323232" stroke-width="2" fill="none" marker-end="url(#SvgjsMarker1606)"></path></g><g id="SvgjsG1608"><path id="SvgjsPath1609" d="M92.51746522690884 574.0299645442278L92.51746522690884 640.4718463277449L92.51746522690884 640.4718463277449L92.51746522690884 706.9137281112619" stroke-dasharray="3,3" stroke="#323232" stroke-width="2" fill="none" marker-end="url(#SvgjsMarker1610)"></path></g><g id="SvgjsG1612" transform="translate(117.0242868337483,587.9013098164162)"><path id="SvgjsPath1613" d="M 0 0L 295.58997138095657 0L 295.58997138095657 116.98426158042284L 0 116.98426158042284Z" stroke-dasharray="3,4" stroke="rgba(50,50,50,1)" stroke-width="2" fill-opacity="1" fill="#ffffff"></path><g id="SvgjsG1614"><text id="SvgjsText1615" font-family="微软雅黑" text-anchor="start" font-size="12px" width="276px" fill="#323232" font-weight="400" align="middle" lineHeight="125%" anchor="start" family="微软雅黑" size="12px" weight="400" font-style="" opacity="1" y="12.49213079021142" transform="rotate(0)"><tspan id="SvgjsTspan1616" dy="15" x="10"><tspan id="SvgjsTspan1617" style="text-decoration:;">url检查</tspan></tspan><tspan id="SvgjsTspan1618" dy="15" x="10"><tspan id="SvgjsTspan1619" style="text-decoration:;">request检查（深度、过滤、域名、去重）</tspan></tspan><tspan id="SvgjsTspan1620" dy="15" x="10"><tspan id="SvgjsTspan1621" style="text-decoration:;">header设置</tspan></tspan><tspan id="SvgjsTspan1622" dy="15" x="10"><tspan id="SvgjsTspan1623" style="text-decoration:;">body设置</tspan></tspan><tspan id="SvgjsTspan1624" dy="15" x="10"><tspan id="SvgjsTspan1625" style="text-decoration:;">http.Request构建</tspan></tspan><tspan id="SvgjsTspan1626" dy="15" x="10"><tspan id="SvgjsTspan1627" style="text-decoration:;">context设置</tspan></tspan></text></g></g><g id="SvgjsG1628" transform="translate(73.50596808625014,325.7199685805535)"><path id="SvgjsPath1629" d="M 0 4Q 0 0 4 0L 358.48402766113225 0Q 362.48402766113225 0 362.48402766113225 4L 362.48402766113225 50.20415441184402Q 362.48402766113225 54.20415441184402 358.48402766113225 54.20415441184402L 4 54.20415441184402Q 0 54.20415441184402 0 50.20415441184402Z" stroke-dasharray="10,6" stroke="rgba(50,50,50,1)" stroke-width="2" fill-opacity="1" fill="#ffffff"></path><g id="SvgjsG1630"><text id="SvgjsText1631" font-family="微软雅黑" text-anchor="middle" font-size="12px" width="343px" fill="#323232" font-weight="400" align="middle" lineHeight="125%" anchor="middle" family="微软雅黑" size="12px" weight="400" font-style="" opacity="1" y="18.10207720592201" transform="rotate(0)"><tspan id="SvgjsTspan1632" dy="15" x="181.5"><tspan id="SvgjsTspan1633" style="text-decoration:;">设置中间件：准备请求、代理、扩展、异常处理、推送</tspan></tspan></text></g></g><g id="SvgjsG1634"><path id="SvgjsPath1635" d="M233.09060799457095 385.0375050183894L233.09060799457095 398.69186835335927L233.09060799457095 398.69186835335927L233.09060799457095 412.3462316883291" stroke-dasharray="3,3" stroke="#323232" stroke-width="2" fill="none" marker-end="url(#SvgjsMarker1636)"></path></g><g id="SvgjsG1638"><path id="SvgjsPath1639" d="M466.6969475229116 177.51889534295302L466.6969475229116 534.5207562266232L466.6969475229116 534.5207562266232L466.6969475229116 891.5226171102934" stroke-dasharray="3,3" stroke="#323232" stroke-width="2" fill="none" marker-start="url(#SvgjsMarker1640)"></path></g><g id="SvgjsG1642"><path id="SvgjsPath1643" d="M254.7479819168163 772.4795379062938L254.7479819168163 789.327569448521L254.74798191681634 789.327569448521L254.74798191681634 806.1756009907481" stroke-dasharray="3,3" stroke="#323232" stroke-width="2" fill="none" marker-end="url(#SvgjsMarker1644)"></path></g><g id="SvgjsG1646" transform="translate(189.87464833530143,806.1756009907481)"><path id="SvgjsPath1647" d="M 0 18.65925439235251L 64.87333358151497 0L 129.74666716302994 18.65925439235251L 64.87333358151497 37.31850878470502L 0 18.65925439235251Z" stroke-dasharray="10,6,3,6" stroke="rgba(50,50,50,1)" stroke-width="2" fill-opacity="1" fill="#ffffff"></path><g id="SvgjsG1648"><text id="SvgjsText1649" font-family="微软雅黑" text-anchor="middle" font-size="12px" width="110px" fill="#323232" font-weight="400" align="middle" lineHeight="125%" anchor="middle" family="微软雅黑" size="12px" weight="400" font-style="" opacity="1" y="9.659254392352508" transform="rotate(0)"><tspan id="SvgjsTspan1650" dy="15" x="65"><tspan id="SvgjsTspan1651" style="text-decoration:;">Async</tspan></tspan></text></g></g><g id="SvgjsG1652"><path id="SvgjsPath1653" d="M319.62131549833146 824.8348553831006L388.89696105894166 824.8348553831006L388.89696105894166 824.8348553831004L458.1726066195518 824.8348553831004" stroke-dasharray="3,3" stroke="#323232" stroke-width="2" fill="none" marker-end="url(#SvgjsMarker1654)"></path></g><g id="SvgjsG1656"><path id="SvgjsPath1657" d="M254.74798191681634 843.4941097754531L254.74798191681634 863.3443804056152L458.9648427221293 863.3443804056152" stroke-dasharray="3,3" stroke="#323232" stroke-width="2" fill="none" marker-end="url(#SvgjsMarker1658)"></path></g><g id="SvgjsG1660" transform="translate(499.64849669566706,400.8897897817783)"><path id="SvgjsPath1661" d="M 0 4Q 0 0 4 0L 232.9224554929545 0Q 236.9224554929545 0 236.9224554929545 4L 236.9224554929545 49.3155617165679Q 236.9224554929545 53.3155617165679 232.9224554929545 53.3155617165679L 4 53.3155617165679Q 0 53.3155617165679 0 49.3155617165679Z" stroke-dasharray="10,6" stroke="rgba(50,50,50,1)" stroke-width="2" fill-opacity="1" fill="#ffffff"></path><g id="SvgjsG1662"><text id="SvgjsText1663" font-family="微软雅黑" text-anchor="middle" font-size="12px" width="217px" fill="#323232" font-weight="400" align="middle" lineHeight="125%" anchor="middle" family="微软雅黑" size="12px" weight="400" font-style="" opacity="1" y="17.65778085828395" transform="rotate(0)"><tspan id="SvgjsTspan1664" dy="15" x="118.5"><tspan id="SvgjsTspan1665" style="text-decoration:;">handleOnResponse</tspan></tspan></text></g></g><g id="SvgjsG1666" transform="translate(499.64849669566706,508.63010659378335)"><path id="SvgjsPath1667" d="M 0 4Q 0 0 4 0L 232.9224554929545 0Q 236.9224554929545 0 236.9224554929545 4L 236.9224554929545 49.3155617165679Q 236.9224554929545 53.3155617165679 232.9224554929545 53.3155617165679L 4 53.3155617165679Q 0 53.3155617165679 0 49.3155617165679Z" stroke-dasharray="10,6" stroke="rgba(50,50,50,1)" stroke-width="2" fill-opacity="1" fill="#ffffff"></path><g id="SvgjsG1668"><text id="SvgjsText1669" font-family="微软雅黑" text-anchor="middle" font-size="12px" width="217px" fill="#323232" font-weight="400" align="middle" lineHeight="125%" anchor="middle" family="微软雅黑" size="12px" weight="400" font-style="" opacity="1" y="17.65778085828395" transform="rotate(0)"><tspan id="SvgjsTspan1670" dy="15" x="118.5"><tspan id="SvgjsTspan1671" style="text-decoration:;">handleOnHTML</tspan></tspan></text></g></g><g id="SvgjsG1672" transform="translate(499.64849669566706,641.233573439328)"><path id="SvgjsPath1673" d="M 0 4Q 0 0 4 0L 232.9224554929545 0Q 236.9224554929545 0 236.9224554929545 4L 236.9224554929545 49.3155617165679Q 236.9224554929545 53.3155617165679 232.9224554929545 53.3155617165679L 4 53.3155617165679Q 0 53.3155617165679 0 49.3155617165679Z" stroke-dasharray="10,6" stroke="rgba(50,50,50,1)" stroke-width="2" fill-opacity="1" fill="#ffffff"></path><g id="SvgjsG1674"><text id="SvgjsText1675" font-family="微软雅黑" text-anchor="middle" font-size="12px" width="217px" fill="#323232" font-weight="400" align="middle" lineHeight="125%" anchor="middle" family="微软雅黑" size="12px" weight="400" font-style="" opacity="1" y="17.65778085828395" transform="rotate(0)"><tspan id="SvgjsTspan1676" dy="15" x="118.5"><tspan id="SvgjsTspan1677" style="text-decoration:;">handleOnXML</tspan></tspan></text></g></g><g id="SvgjsG1678" transform="translate(499.64849669566706,773.8370402848726)"><path id="SvgjsPath1679" d="M 0 4Q 0 0 4 0L 232.9224554929545 0Q 236.9224554929545 0 236.9224554929545 4L 236.9224554929545 49.3155617165679Q 236.9224554929545 53.3155617165679 232.9224554929545 53.3155617165679L 4 53.3155617165679Q 0 53.3155617165679 0 49.3155617165679Z" stroke-dasharray="10,6" stroke="rgba(50,50,50,1)" stroke-width="2" fill-opacity="1" fill="#ffffff"></path><g id="SvgjsG1680"><text id="SvgjsText1681" font-family="微软雅黑" text-anchor="middle" font-size="12px" width="217px" fill="#323232" font-weight="400" align="middle" lineHeight="125%" anchor="middle" family="微软雅黑" size="12px" weight="400" font-style="" opacity="1" y="17.65778085828395" transform="rotate(0)"><tspan id="SvgjsTspan1682" dy="15" x="118.5"><tspan id="SvgjsTspan1683" style="text-decoration:;">handleOnScraped</tspan></tspan></text></g></g><g id="SvgjsG1684"><path id="SvgjsPath1685" d="M617.634686635692 461.94159485312537L617.634686635692 478.65567738117716L617.634686635692 478.65567738117716L617.634686635692 495.36975990922895" stroke-dasharray="3,3" stroke="#323232" stroke-width="2" fill="none" marker-end="url(#SvgjsMarker1686)"></path></g><g id="SvgjsG1688"><path id="SvgjsPath1689" d="M617.634686635692 569.6819116651303L617.634686635692 601.5896208748395L617.634686635692 601.5896208748395L617.634686635692 633.4973300845487" stroke-dasharray="3,3" stroke="#323232" stroke-width="2" fill="none" marker-end="url(#SvgjsMarker1690)"></path><rect id="SvgjsRect1692" width="84" height="15" x="575.634686635692" y="594.0896208748395" fill="#ffffff"></rect><text id="SvgjsText1693" font-family="微软雅黑" text-anchor="middle" font-size="12px" width="84px" fill="#323232" font-weight="400" align="top" lineHeight="15px" anchor="middle" family="微软雅黑" size="12px" weight="400" font-style="" opacity="1" y="592.5896208748395" transform="rotate(0)"><tspan id="SvgjsTspan1694" dy="15" x="617.634686635692"><tspan id="SvgjsTspan1695" style="text-decoration:;">handleOnError</tspan></tspan></text></g><g id="SvgjsG1696"><path id="SvgjsPath1697" d="M616.8369679303285 707.7424997790466L616.8369679303285 736.2315258591441L616.8369679303285 736.2315258591441L616.8369679303285 764.7205519392414" stroke-dasharray="3,3" stroke="#323232" stroke-width="2" fill="none" marker-end="url(#SvgjsMarker1698)"></path><rect id="SvgjsRect1700" width="84" height="15" x="574.8369679303285" y="728.731525859144" fill="#ffffff"></rect><text id="SvgjsText1701" font-family="微软雅黑" text-anchor="middle" font-size="12px" width="84px" fill="#323232" font-weight="400" align="top" lineHeight="15px" anchor="middle" family="微软雅黑" size="12px" weight="400" font-style="" opacity="1" y="727.231525859144" transform="rotate(0)"><tspan id="SvgjsTspan1702" dy="15" x="616.8369679303285"><tspan id="SvgjsTspan1703" style="text-decoration:;">handleOnError</tspan></tspan></text></g><g id="SvgjsG1704" transform="translate(511.6142772761191,241.76562956712473)"><path id="SvgjsPath1705" d="M 0 0L 197.03652022478033 0L 197.03652022478033 96.96628513080452L 0 96.96628513080452Z" stroke-dasharray="3,4" stroke="rgba(50,50,50,1)" stroke-width="2" fill-opacity="1" fill="#ffffff"></path><g id="SvgjsG1706"><text id="SvgjsText1707" font-family="微软雅黑" text-anchor="start" font-size="12px" width="178px" fill="#323232" font-weight="400" align="middle" lineHeight="125%" anchor="start" family="微软雅黑" size="12px" weight="400" font-style="" opacity="1" y="24.48314256540226" transform="rotate(0)"><tspan id="SvgjsTspan1708" dy="15" x="10"><tspan id="SvgjsTspan1709" style="text-decoration:;">Check Abort</tspan></tspan><tspan id="SvgjsTspan1710" dy="15" x="10"><tspan id="SvgjsTspan1711" style="text-decoration:;">获取response（backend发送请</tspan></tspan><tspan id="SvgjsTspan1712" dy="15" x="10"><tspan id="SvgjsTspan1713" style="text-decoration:;">求，控制并发数）</tspan></tspan></text></g></g><g id="SvgjsG1714"><path id="SvgjsPath1715" d="M832.7950463070198 618.6681018281585L809.8713014333514 618.6681018281585L809.8713014333514 618.6681018281585L786.9475565596829 618.6681018281585" stroke="#323232" stroke-width="2" fill="none" marker-end="url(#SvgjsMarker1716)"></path></g><g id="SvgjsG1718"><path id="SvgjsPath1719" d="M721.3381183329449 223.53265287586237L721.3381183329449 307.23859132211237L721.3381183329449 307.23859132211237L721.3381183329449 390.94452976836243" stroke-dasharray="3,3" stroke="#323232" stroke-width="2" fill="none" marker-end="url(#SvgjsMarker1720)"></path><rect id="SvgjsRect1722" width="84" height="15" x="679.3381183329449" y="299.73859132211237" fill="#ffffff"></rect><text id="SvgjsText1723" font-family="微软雅黑" text-anchor="middle" font-size="12px" width="84px" fill="#323232" font-weight="400" align="top" lineHeight="15px" anchor="middle" family="微软雅黑" size="12px" weight="400" font-style="" opacity="1" y="298.23859132211237" transform="rotate(0)"><tspan id="SvgjsTspan1724" dy="15" x="721.3381183329449"><tspan id="SvgjsTspan1725" style="text-decoration:;">handleOnError</tspan></tspan></text></g></svg>